<svg width="60" height="60" viewBox="0 0 60 60" fill="none" xmlns="http://www.w3.org/2000/svg">
<path d="M52.6667 0H6.58333C2.9625 0 0 2.9625 0 6.58333V52.6667C0 56.2875 2.9625 59.25 6.58333 59.25H52.6667C56.2875 59.25 59.25 56.2875 59.25 52.6667V6.58333C59.25 2.9625 56.2875 0 52.6667 0ZM21.3958 27.9792C21.3958 30.6125 19.0917 32.9167 16.4583 32.9167H13.1667V39.5H8.22917V19.75H16.4583C19.0917 19.75 21.3958 22.0542 21.3958 24.6875V27.9792ZM37.8542 34.5625C37.8542 37.1958 35.55 39.5 32.9167 39.5H24.6875V19.75H32.9167C35.55 19.75 37.8542 22.0542 37.8542 24.6875V34.5625ZM51.0208 24.6875H46.0833V27.9792H51.0208V32.9167H46.0833V39.5H41.1458V19.75H51.0208V24.6875ZM29.625 24.6875H32.9167V34.5625H29.625V24.6875ZM13.1667 24.6875H16.4583V27.9792H13.1667V24.6875Z" fill="#0A1042"/>
</svg>
